<?xml version="1.0" standalone="no"?><!DOCTYPE svg PUBLIC "-//W3C//DTD SVG 1.1//EN" "http://www.w3.org/Graphics/SVG/1.1/DTD/svg11.dtd"><svg t="1585206111722" class="icon" viewBox="0 0 1024 1024" version="1.1" xmlns="http://www.w3.org/2000/svg" p-id="1818" xmlns:xlink="http://www.w3.org/1999/xlink" width="200" height="200"><defs><style type="text/css"></style></defs><path d="M897.792 848.2816a507.392 507.392 0 0 0 125.7472-335.7696 507.8528 507.8528 0 0 0-149.76-361.472A507.6992 507.6992 0 0 0 518.656 1.3824a47.5136 47.5136 0 0 0-14.0288 0A507.6992 507.6992 0 0 0 150.8864 151.04 507.6992 507.6992 0 0 0 1.28 505.6a47.4624 47.4624 0 0 0-0.0512 11.7248 507.7504 507.7504 0 0 0 149.6576 356.608 507.8528 507.8528 0 0 0 361.472 149.76 507.8528 507.8528 0 0 0 381.7984-171.3664 23.552 23.552 0 0 0 3.584-4.096zM48.64 534.9376h214.7328c1.536 75.264 10.5984 145.7664 25.8048 208.64-70.656 19.0976-115.5072 43.9296-138.7008 59.392a461.9776 461.9776 0 0 1-101.888-268.032zM149.9136 222.72c23.04 15.5136 67.84 40.6528 139.008 59.904a977.3568 977.3568 0 0 0-25.4976 205.4656H48.64A461.9776 461.9776 0 0 1 149.9136 222.72z m826.0608 265.3696H761.344a977.408 977.408 0 0 0-25.4976-205.4144c70.9632-19.1488 115.968-44.032 139.264-59.5968a461.9776 461.9776 0 0 1 100.9152 265.0112z m-261.632 0h-179.2v-178.688a890.9312 890.9312 0 0 0 154.88-16.0768c14.3872 59.6992 22.7328 125.8496 24.3712 194.7648z m-179.2-225.5872V51.456c42.1376 11.9296 83.3024 56.32 115.5584 126.0032 10.0864 21.8112 19.0464 45.4144 26.88 70.4512a847.872 847.872 0 0 1-142.4896 14.5408z m-46.9504-210.5856v210.5344a837.0688 837.0688 0 0 1-141.0048-14.6944c7.7824-24.9856 16.7424-48.4864 26.8288-70.2464 31.8464-68.864 72.4992-113.152 114.176-125.5936z m0 257.4336v178.7392H310.3232c1.5872-68.9664 9.9328-135.0656 24.32-194.816 43.3664 8.6528 94.3104 14.7456 153.6 16.0768zM310.272 534.9376h177.92v181.76a888.1152 888.1152 0 0 0-153.2928 16.1792 930.5088 930.5088 0 0 1-24.576-197.9392z m177.92 228.6592v209.5104c-41.6768-12.4928-82.3296-56.6784-114.176-125.5936a574.976 574.976 0 0 1-26.5728-69.376c39.68-7.68 86.4256-13.2096 140.8-14.5408z m46.8992 209.92v-209.9712c54.8864 1.1776 102.0928 6.7072 142.1824 14.4896-7.7312 24.6784-16.5888 47.9744-26.5728 69.4784-32.256 69.632-73.4208 114.1248-115.6096 126.0032z m0-256.8704v-181.7088h179.3024a930.7648 930.7648 0 0 1-24.576 197.632 890.2656 890.2656 0 0 0-154.7264-15.9232z m226.2016-181.7088h214.784a461.9776 461.9776 0 0 1-101.5296 267.6224c-23.3984-15.6672-68.3008-40.448-138.9056-59.392 15.104-62.72 24.1664-133.12 25.6512-208.2304z m82.3296-347.392c-20.992 13.2608-59.904 33.6384-120.1152 49.8176-22.1184-72.192-52.7872-131.7376-89.3952-172.9024a464.5376 464.5376 0 0 1 209.5104 123.0848zM390.6048 64.512c-36.5568 41.1136-67.2256 100.5056-89.344 172.5952-60.0064-16.3328-98.9184-36.7616-119.808-49.92A464.5376 464.5376 0 0 1 390.656 64.4608zM182.016 838.4c20.992-13.2096 59.6992-33.4848 119.5008-49.664 22.0672 71.7312 52.6848 130.816 89.088 171.8272a464.5376 464.5376 0 0 1-208.5888-122.1632z m452.096 122.1632c36.4032-41.0112 67.0208-100.1472 89.088-171.9296 59.5456 16.0768 98.4576 36.2496 119.7568 49.5104a464.5376 464.5376 0 0 1-208.896 122.368z" p-id="1819"></path></svg>