<?xml version="1.0" standalone="no"?><!DOCTYPE svg PUBLIC "-//W3C//DTD SVG 1.1//EN" "http://www.w3.org/Graphics/SVG/1.1/DTD/svg11.dtd"><svg t="1585206299460" class="icon" viewBox="0 0 1056 1024" version="1.1" xmlns="http://www.w3.org/2000/svg" p-id="5779" xmlns:xlink="http://www.w3.org/1999/xlink" width="206.25" height="200"><defs><style type="text/css"></style></defs><path d="M881.056 507.52v-101.92a24.64 24.64 0 0 0-24.736-24.512H24.736a24.672 24.672 0 0 0-24.736 24.512v247.264c0 138.4 65.088 265.92 178.432 349.696a25.28 25.28 0 0 0 14.784 4.832H687.68a25.28 25.28 0 0 0 14.784-4.832c45.888-33.92 83.104-76.704 113.088-125.632 13.056 3.072 26.24 6.72 38.592 6.912h2.24c103.968 0 189.728-84.16 191.04-187.52 1.056-96.128-71.04-175.808-166.368-188.8z m-49.504 21.92v123.424a376.128 376.128 0 0 1-48.96 185.44 390.752 390.752 0 0 1-103.328 119.936H201.664c-96.864-74.4-152.192-185.28-152.192-305.376v-222.72h782.08v99.296z m24.768 305.216h-1.6c-4.64 0-9.408-0.352-14.176-1.024 1.184-2.24 1.44-4.672 2.4-6.88 11.2-24.8 20.128-50.112 26.24-76.288 1.184-4.448 1.696-9.024 2.72-13.6a420.16 420.16 0 0 0 9.184-83.968v-96.896c66.944 11.776 117.504 70.272 116.8 139.936-0.96 76.448-64.48 138.72-141.568 138.72zM440.48 313.76a24.64 24.64 0 0 1-24.8-24.512V36.96a24.64 24.64 0 0 1 24.8-24.512c13.568 0 24.736 10.944 24.736 24.512V289.28a24.672 24.672 0 0 1-24.736 24.512z m208.032 0a24.64 24.64 0 0 1-24.736-24.512V95.104a24.64 24.64 0 0 1 24.736-24.544 24.64 24.64 0 0 1 24.736 24.544v194.144a24.64 24.64 0 0 1-24.736 24.512z m-416 0a24.64 24.64 0 0 1-24.736-24.512V95.104a24.64 24.64 0 0 1 24.704-24.544c13.568 0 24.736 10.976 24.736 24.544v194.144a24.672 24.672 0 0 1-24.704 24.512z" p-id="5780"></path></svg>