<?xml version="1.0" standalone="no"?><!DOCTYPE svg PUBLIC "-//W3C//DTD SVG 1.1//EN" "http://www.w3.org/Graphics/SVG/1.1/DTD/svg11.dtd"><svg t="1585206305948" class="icon" viewBox="0 0 1024 1024" version="1.1" xmlns="http://www.w3.org/2000/svg" p-id="5898" xmlns:xlink="http://www.w3.org/1999/xlink" width="200" height="200"><defs><style type="text/css"></style></defs><path d="M891.3 40.4H139.9c-59.9 0-93 30.1-93 84.7v769.7c0 52.7 33.9 82.9 93 82.9h751.4c57.4 0 89.1-29.5 89.1-82.9V125.1c0-54.6-31.6-84.7-89.1-84.7z m-751.4 36h751.4c36.2 0 50.4 13.6 50.4 48.7v198.3h-856V125.1c0-34.6 15.7-48.7 54.2-48.7z m590.7 576.8c-17 0-31.1-5.8-45.2-18.9-11.7-9.7-16.7-21.8-16.7-40.6V359.4h125.9v234.3c0 17.2-5.9 30.1-19.5 41.3-13.4 12.4-27.5 18.2-44.5 18.2z m-222.7 0h-13c-12.8-3.3-23-9.1-30.4-17.1-0.6-0.6-1.2-1.2-1.8-1.7C450 623.9 444 611 444 593.8V359.4h125.9v234.3c0 18.8-5 30.9-17.5 41.3-13.4 12.4-27.5 18.2-44.5 18.2z m-228.5 0c-16.2 0-29.7-5.2-42.3-16.2-0.8-1.7-1.9-3.3-3.2-4.7-11.3-12-16.5-24.2-16.5-38.6V359.4h125.9v234.3c0 17.2-5.9 30.1-18.7 40.6-0.6 0.5-1.1 1-1.6 1.5-11.3 11.9-25.2 17.4-43.6 17.4zM85.7 894.8V359.4h93v234.3c0 22.1 7.7 41.5 23.4 59.4 1.7 3.6 4.1 6.2 5.5 7.4 15.5 14.4 33.1 23.4 52.4 26.9v254.1H139.9c-38 0.1-54.2-13.9-54.2-46.7z m213 46.8v-254c20.3-3.2 38.7-12.8 52.4-27 20.5-17.3 30.8-39.8 30.8-66.8V359.4h23.2v234.3c0 27 10.3 49.5 30.7 66.7 11.9 12.5 28 21.5 46.8 26.7v254.4H298.7z m222.7 0V688c21.8-2.7 42-12.1 57.4-26.7 20-16.5 29.7-38.6 29.7-67.5V359.4h21.3v234.3c0 28.9 9.7 51 28.9 66.8 15.5 14.4 33 23.4 52.4 26.9v254.1H521.4z m369.9 0H750V687.5c19.3-3.5 36.7-12.4 51.6-26.2 21-17.4 31.7-40.1 31.7-67.5V359.4h108.5v535.3c-0.1 33.3-14.7 46.9-50.5 46.9z m0 0" p-id="5899"></path><path d="M767.4 143.1c-15.5 0-29 5.4-40.7 16.2-11.6 10.8-17.4 25.2-17.4 39.7 0 14.4 5.8 28.8 17.4 39.7 11.6 9 25.2 16.2 40.7 16.2 17.4 0 31-7.2 42.6-16.2 11.6-10.8 17.4-25.2 17.4-39.7 0-14.4-5.8-28.8-17.4-39.7-11.6-10.8-25.2-16.2-42.6-16.2zM616.3 208c5.8-5.4 7.8-12.6 7.8-19.8 0-5.4-2-12.6-7.8-18s-13.6-9-21.3-9H211.6c-5.8 0-13.6 3.6-19.4 9-5.8 5.4-9.7 12.6-9.7 18 0 7.2 3.9 14.4 9.7 19.8 5.8 5.4 13.6 7.2 19.4 7.2H595c7.8 0 15.5-1.8 21.3-7.2z m0 0" p-id="5900"></path></svg>