<?xml version="1.0" standalone="no"?><!DOCTYPE svg PUBLIC "-//W3C//DTD SVG 1.1//EN" "http://www.w3.org/Graphics/SVG/1.1/DTD/svg11.dtd"><svg t="1585206667257" class="icon" viewBox="0 0 1024 1024" version="1.1" xmlns="http://www.w3.org/2000/svg" p-id="9004" xmlns:xlink="http://www.w3.org/1999/xlink" width="200" height="200"><defs><style type="text/css"></style></defs><path d="M453.6 480.8H156.8C74.4 480.8 8 414.4 8 332V35.2C8 19.2 21.6 5.6 37.6 5.6h296.8C416 5.6 482.4 72 482.4 153.6v296.8c0.8 16.8-12.8 30.4-28.8 30.4zM68 64.8v267.2c0 48.8 40 88.8 88.8 88.8H424V154.4c0-48.8-40-88.8-88.8-88.8H68zM334.4 1008H37.6c-16 0-29.6-13.6-29.6-29.6V681.6C8 600 74.4 533.6 156 533.6h296.8c16 0 29.6 13.6 29.6 29.6v296.8c0.8 81.6-65.6 148-148 148z m-267.2-59.2h267.2c48.8 0 88.8-40 88.8-88.8V592.8H156c-48.8 0-88.8 40-88.8 88.8v267.2z m914.4 59.2H684.8c-81.6 0-148-66.4-148-148V563.2c0-16 13.6-29.6 29.6-29.6h296.8c81.6 0 148 66.4 148 148v296.8c0 16-12.8 29.6-29.6 29.6zM596 592.8v267.2c0 48.8 40 88.8 88.8 88.8H952V681.6c0-48.8-40-88.8-88.8-88.8H596zM862.4 480.8H565.6c-16 0-29.6-13.6-29.6-29.6V154.4C536 72 602.4 5.6 684.8 5.6h296.8c16 0 29.6 13.6 29.6 29.6v296.8c0 82.4-66.4 148.8-148.8 148.8z m-266.4-59.2h267.2c48.8 0 88.8-40 88.8-88.8V64.8H684.8c-48.8 0-88.8 40-88.8 88.8v268z" p-id="9005"></path></svg>